# xmcd
#
# Track frame offsets:
#	150
#	14741
#	32370
#	51614
#	67218
#	87659
#	105811
#	120889
#	137768
#	154196
#	171749
#	192621
#	208113
#	225966
#	239724
#	254652
#
# Disc length: 3632 seconds
#
# Revision: 0
# Processed by: cddbd v1.5.1PL0 Copyright (c) Steve Scherf et al.
# Submitted via: EasyCDDAExtractor 7.5.2.1
#
DISCID=ef0e2e10
DTITLE=Gheorghita Pintileasa - Hai Cu Toti La Hora Mare
DYEAR=1900
DGENRE=
TTITLE0=Sarba Moldovenilor
TTITLE1=Batuta De La Vicov
TTITLE2=Sarba De La Pascani
TTITLE3=Hora Mare
TTITLE4=Ruseasca De La Vaslui
TTITLE5=Batuta Pe Hang
TTITLE6=Maruntica
TTITLE7=Hora De La Vanatori
TTITLE8=Ruseasca Pe Loc
TTITLE9=Sarba De La Iasi
TTITLE10=Auzi, Mandro, Ori N-Auzi
TTITLE11=Hora De La Bacau
TTITLE12=Sarba Vranceneasca
TTITLE13=Soarele De Dimineata
TTITLE14=Batuta De La Ruginoasa
TTITLE15=Sarba Lui Pintileasa
EXTD=
EXTT0=
EXTT1=
EXTT2=
EXTT3=
EXTT4=
EXTT5=
EXTT6=
EXTT7=
EXTT8=
EXTT9=
EXTT10=
EXTT11=
EXTT12=
EXTT13=
EXTT14=
EXTT15=
PLAYORDER=
